<mxfile host="app.diagrams.net" modified="2024-04-22T11:48:53.261Z" agent="Mozilla/5.0 (Windows NT 10.0; Win64; x64) AppleWebKit/537.36 (KHTML, like Gecko) Chrome/124.0.0.0 Safari/537.36" etag="HZlWlwXJJuyMlM3pNWn7" version="24.2.7" type="github">
  <diagram id="C5RBs43oDa-KdzZeNtuy" name="Page-1">
    <mxGraphModel dx="1311" dy="1875" grid="1" gridSize="10" guides="1" tooltips="1" connect="1" arrows="1" fold="1" page="1" pageScale="1" pageWidth="827" pageHeight="1169" math="0" shadow="0">
      <root>
        <mxCell id="WIyWlLk6GJQsqaUBKTNV-0" />
        <mxCell id="WIyWlLk6GJQsqaUBKTNV-1" parent="WIyWlLk6GJQsqaUBKTNV-0" />
        <mxCell id="r1nFL3UUSwEMrbm2R3FW-45" style="edgeStyle=orthogonalEdgeStyle;rounded=0;orthogonalLoop=1;jettySize=auto;html=1;entryX=0.5;entryY=0;entryDx=0;entryDy=0;" edge="1" parent="WIyWlLk6GJQsqaUBKTNV-1" source="r1nFL3UUSwEMrbm2R3FW-0" target="r1nFL3UUSwEMrbm2R3FW-44">
          <mxGeometry relative="1" as="geometry" />
        </mxCell>
        <mxCell id="r1nFL3UUSwEMrbm2R3FW-0" value="begin" style="ellipse;whiteSpace=wrap;html=1;" vertex="1" parent="WIyWlLk6GJQsqaUBKTNV-1">
          <mxGeometry x="165" y="-160" width="70" height="50" as="geometry" />
        </mxCell>
        <mxCell id="r1nFL3UUSwEMrbm2R3FW-15" value="menù&amp;nbsp;&lt;div&gt;di scelta&lt;/div&gt;" style="shape=switch;whiteSpace=wrap;html=1;" vertex="1" parent="WIyWlLk6GJQsqaUBKTNV-1">
          <mxGeometry x="140" y="80" width="130" height="140" as="geometry" />
        </mxCell>
        <mxCell id="r1nFL3UUSwEMrbm2R3FW-19" value="" style="endArrow=classic;html=1;rounded=0;exitX=0.75;exitY=0.5;exitDx=0;exitDy=0;exitPerimeter=0;" edge="1" parent="WIyWlLk6GJQsqaUBKTNV-1" source="r1nFL3UUSwEMrbm2R3FW-15">
          <mxGeometry width="50" height="50" relative="1" as="geometry">
            <mxPoint x="390" y="240" as="sourcePoint" />
            <mxPoint x="360" y="150" as="targetPoint" />
          </mxGeometry>
        </mxCell>
        <mxCell id="r1nFL3UUSwEMrbm2R3FW-37" value="" style="edgeStyle=orthogonalEdgeStyle;rounded=0;orthogonalLoop=1;jettySize=auto;html=1;" edge="1" parent="WIyWlLk6GJQsqaUBKTNV-1" source="r1nFL3UUSwEMrbm2R3FW-20" target="r1nFL3UUSwEMrbm2R3FW-36">
          <mxGeometry relative="1" as="geometry" />
        </mxCell>
        <mxCell id="r1nFL3UUSwEMrbm2R3FW-20" value="1.aggiungi libro" style="rounded=0;whiteSpace=wrap;html=1;" vertex="1" parent="WIyWlLk6GJQsqaUBKTNV-1">
          <mxGeometry x="360" y="120" width="120" height="60" as="geometry" />
        </mxCell>
        <mxCell id="r1nFL3UUSwEMrbm2R3FW-21" value="" style="endArrow=classic;html=1;rounded=0;entryX=0;entryY=0.5;entryDx=0;entryDy=0;" edge="1" parent="WIyWlLk6GJQsqaUBKTNV-1" target="r1nFL3UUSwEMrbm2R3FW-23">
          <mxGeometry width="50" height="50" relative="1" as="geometry">
            <mxPoint x="270" y="150" as="sourcePoint" />
            <mxPoint x="360" y="250" as="targetPoint" />
            <Array as="points">
              <mxPoint x="320" y="215" />
            </Array>
          </mxGeometry>
        </mxCell>
        <mxCell id="r1nFL3UUSwEMrbm2R3FW-40" style="edgeStyle=orthogonalEdgeStyle;rounded=0;orthogonalLoop=1;jettySize=auto;html=1;exitX=1;exitY=0.5;exitDx=0;exitDy=0;" edge="1" parent="WIyWlLk6GJQsqaUBKTNV-1" source="r1nFL3UUSwEMrbm2R3FW-23" target="r1nFL3UUSwEMrbm2R3FW-41">
          <mxGeometry relative="1" as="geometry">
            <mxPoint x="570" y="215" as="targetPoint" />
          </mxGeometry>
        </mxCell>
        <mxCell id="r1nFL3UUSwEMrbm2R3FW-23" value="2. aggiungi audioLibro" style="rounded=0;whiteSpace=wrap;html=1;" vertex="1" parent="WIyWlLk6GJQsqaUBKTNV-1">
          <mxGeometry x="360" y="190" width="120" height="50" as="geometry" />
        </mxCell>
        <mxCell id="r1nFL3UUSwEMrbm2R3FW-25" value="" style="endArrow=classic;html=1;rounded=0;" edge="1" parent="WIyWlLk6GJQsqaUBKTNV-1" target="r1nFL3UUSwEMrbm2R3FW-26">
          <mxGeometry width="50" height="50" relative="1" as="geometry">
            <mxPoint x="270" y="150" as="sourcePoint" />
            <mxPoint x="360" y="340" as="targetPoint" />
            <Array as="points">
              <mxPoint x="320" y="280" />
            </Array>
          </mxGeometry>
        </mxCell>
        <mxCell id="r1nFL3UUSwEMrbm2R3FW-42" style="edgeStyle=orthogonalEdgeStyle;rounded=0;orthogonalLoop=1;jettySize=auto;html=1;exitX=1;exitY=0.5;exitDx=0;exitDy=0;" edge="1" parent="WIyWlLk6GJQsqaUBKTNV-1" source="r1nFL3UUSwEMrbm2R3FW-26" target="r1nFL3UUSwEMrbm2R3FW-43">
          <mxGeometry relative="1" as="geometry">
            <mxPoint x="560" y="290" as="targetPoint" />
          </mxGeometry>
        </mxCell>
        <mxCell id="r1nFL3UUSwEMrbm2R3FW-26" value="3. rimuovi libro" style="rounded=0;whiteSpace=wrap;html=1;" vertex="1" parent="WIyWlLk6GJQsqaUBKTNV-1">
          <mxGeometry x="360" y="260" width="120" height="60" as="geometry" />
        </mxCell>
        <mxCell id="r1nFL3UUSwEMrbm2R3FW-28" value="" style="endArrow=classic;html=1;rounded=0;" edge="1" parent="WIyWlLk6GJQsqaUBKTNV-1" target="r1nFL3UUSwEMrbm2R3FW-30">
          <mxGeometry width="50" height="50" relative="1" as="geometry">
            <mxPoint x="270" y="150" as="sourcePoint" />
            <mxPoint x="360" y="370" as="targetPoint" />
            <Array as="points">
              <mxPoint x="270" y="290" />
            </Array>
          </mxGeometry>
        </mxCell>
        <mxCell id="r1nFL3UUSwEMrbm2R3FW-30" value="4. esci dal menù" style="rounded=0;whiteSpace=wrap;html=1;" vertex="1" parent="WIyWlLk6GJQsqaUBKTNV-1">
          <mxGeometry x="360" y="340" width="120" height="60" as="geometry" />
        </mxCell>
        <mxCell id="r1nFL3UUSwEMrbm2R3FW-32" value="" style="endArrow=classic;html=1;rounded=0;" edge="1" parent="WIyWlLk6GJQsqaUBKTNV-1" target="r1nFL3UUSwEMrbm2R3FW-34">
          <mxGeometry width="50" height="50" relative="1" as="geometry">
            <mxPoint x="414" y="400" as="sourcePoint" />
            <mxPoint x="414" y="470" as="targetPoint" />
          </mxGeometry>
        </mxCell>
        <mxCell id="r1nFL3UUSwEMrbm2R3FW-34" value="end" style="ellipse;whiteSpace=wrap;html=1;" vertex="1" parent="WIyWlLk6GJQsqaUBKTNV-1">
          <mxGeometry x="376" y="430" width="76" height="60" as="geometry" />
        </mxCell>
        <mxCell id="r1nFL3UUSwEMrbm2R3FW-48" style="edgeStyle=orthogonalEdgeStyle;rounded=0;orthogonalLoop=1;jettySize=auto;html=1;entryX=1;entryY=0.5;entryDx=0;entryDy=0;" edge="1" parent="WIyWlLk6GJQsqaUBKTNV-1" source="r1nFL3UUSwEMrbm2R3FW-36" target="r1nFL3UUSwEMrbm2R3FW-44">
          <mxGeometry relative="1" as="geometry">
            <Array as="points">
              <mxPoint x="730" y="150" />
              <mxPoint x="730" y="-20" />
            </Array>
          </mxGeometry>
        </mxCell>
        <mxCell id="r1nFL3UUSwEMrbm2R3FW-36" value="leggi ID, Titolo,&lt;div&gt;Autore&lt;/div&gt;" style="shape=parallelogram;perimeter=parallelogramPerimeter;whiteSpace=wrap;html=1;fixedSize=1;rounded=0;" vertex="1" parent="WIyWlLk6GJQsqaUBKTNV-1">
          <mxGeometry x="560" y="120" width="120" height="60" as="geometry" />
        </mxCell>
        <mxCell id="r1nFL3UUSwEMrbm2R3FW-52" style="edgeStyle=orthogonalEdgeStyle;rounded=0;orthogonalLoop=1;jettySize=auto;html=1;" edge="1" parent="WIyWlLk6GJQsqaUBKTNV-1" source="r1nFL3UUSwEMrbm2R3FW-41">
          <mxGeometry relative="1" as="geometry">
            <mxPoint x="730" y="150" as="targetPoint" />
          </mxGeometry>
        </mxCell>
        <mxCell id="r1nFL3UUSwEMrbm2R3FW-41" value="leggi ID, Titolo,&lt;div&gt;Autore, Durata&lt;/div&gt;" style="shape=parallelogram;perimeter=parallelogramPerimeter;whiteSpace=wrap;html=1;fixedSize=1;" vertex="1" parent="WIyWlLk6GJQsqaUBKTNV-1">
          <mxGeometry x="550" y="185" width="110" height="60" as="geometry" />
        </mxCell>
        <mxCell id="r1nFL3UUSwEMrbm2R3FW-53" style="edgeStyle=orthogonalEdgeStyle;rounded=0;orthogonalLoop=1;jettySize=auto;html=1;exitX=1;exitY=0.5;exitDx=0;exitDy=0;" edge="1" parent="WIyWlLk6GJQsqaUBKTNV-1" source="r1nFL3UUSwEMrbm2R3FW-43">
          <mxGeometry relative="1" as="geometry">
            <mxPoint x="730" y="220" as="targetPoint" />
          </mxGeometry>
        </mxCell>
        <mxCell id="r1nFL3UUSwEMrbm2R3FW-43" value="leggi ID" style="shape=parallelogram;perimeter=parallelogramPerimeter;whiteSpace=wrap;html=1;fixedSize=1;" vertex="1" parent="WIyWlLk6GJQsqaUBKTNV-1">
          <mxGeometry x="530" y="260" width="120" height="60" as="geometry" />
        </mxCell>
        <mxCell id="r1nFL3UUSwEMrbm2R3FW-44" value="ciclo fino a che non ritorna il codice" style="rhombus;whiteSpace=wrap;html=1;" vertex="1" parent="WIyWlLk6GJQsqaUBKTNV-1">
          <mxGeometry x="145" y="-80" width="110" height="120" as="geometry" />
        </mxCell>
        <mxCell id="r1nFL3UUSwEMrbm2R3FW-47" style="edgeStyle=orthogonalEdgeStyle;rounded=0;orthogonalLoop=1;jettySize=auto;html=1;entryX=0.464;entryY=0.275;entryDx=0;entryDy=0;entryPerimeter=0;" edge="1" parent="WIyWlLk6GJQsqaUBKTNV-1" source="r1nFL3UUSwEMrbm2R3FW-44" target="r1nFL3UUSwEMrbm2R3FW-15">
          <mxGeometry relative="1" as="geometry" />
        </mxCell>
      </root>
    </mxGraphModel>
  </diagram>
</mxfile>
